+ filenameToUse=/home/horvathandras/vatic/vatic/public/videouploads/DJI_0677_valto_regi_turas_gabona_Vaskut_2018.06.24._napos_kalaszos_T4.avi
+ filenameNoDot=DJI_0677_valto_regi_turas_gabona_Vaskut_2018.06.24._napos_kalaszos_T4
+ FullUploadPath=/home/horvathandras/vatic/vatic/public/videouploads/DJI_0677_valto_regi_turas_gabona_Vaskut_2018.06.24._napos_kalaszos_T4.avi
+ VideoDataDir=/home/horvathandras/vatic/vatic/videos
+ AvailableObjectTypes='PozitívROI NegatívROI Túrás ~Friss ~1-2Hetes ~Régebbi ~Egyéb1 ~Egyéb2 ~Egyéb3 Rágás ~Friss ~1-2Hetes ~Régebbi ~Egyéb1 ~Egyéb2 ~Egyéb3 Törés ~Friss ~1-2Hetes ~Régebbi ~Egyéb1 ~Egyéb2 ~Egyéb3 Taposás ~Friss ~1-2Hetes ~Régebbi ~Egyéb1 ~Egyéb2 ~Egyéb3 EgészségesNövény Egyéb1 Egyéb2 Egyéb3 Egyéb4 Egyéb5 Bizonytalan Művelőút Gktaposás Vetőhiba Széldöntés Jégkár Belvíz Aszály Erózió EgyszikűGyom KétszikűGyom EgyébNövvédelmiPR'
++ dirname /home/horvathandras/vatic/vatic/vatic_publisher.sh
+ cd /home/horvathandras/vatic/vatic
+ touch /home/horvathandras/vatic/vatic/public/videouploads/DJI_0677_valto_regi_turas_gabona_Vaskut_2018.06.24._napos_kalaszos_T4.avi
+ chmod 744 /home/horvathandras/vatic/vatic/public/videouploads/DJI_0677_valto_regi_turas_gabona_Vaskut_2018.06.24._napos_kalaszos_T4.avi
+ mkdir /home/horvathandras/vatic/vatic/videos/DJI_0677_valto_regi_turas_gabona_Vaskut_2018.06.24._napos_kalaszos_T4
+ turkic extract /home/horvathandras/vatic/vatic/public/videouploads/DJI_0677_valto_regi_turas_gabona_Vaskut_2018.06.24._napos_kalaszos_T4.avi /home/horvathandras/vatic/vatic/videos/DJI_0677_valto_regi_turas_gabona_Vaskut_2018.06.24._napos_kalaszos_T4 --no-resize
ffmpeg version 2.8.14-0ubuntu0.16.04.1 Copyright (c) 2000-2018 the FFmpeg developers
  built with gcc 5.4.0 (Ubuntu 5.4.0-6ubuntu1~16.04.9) 20160609
  configuration: --prefix=/usr --extra-version=0ubuntu0.16.04.1 --build-suffix=-ffmpeg --toolchain=hardened --libdir=/usr/lib/x86_64-linux-gnu --incdir=/usr/include/x86_64-linux-gnu --cc=cc --cxx=g++ --enable-gpl --enable-shared --disable-stripping --disable-decoder=libopenjpeg --disable-decoder=libschroedinger --enable-avresample --enable-avisynth --enable-gnutls --enable-ladspa --enable-libass --enable-libbluray --enable-libbs2b --enable-libcaca --enable-libcdio --enable-libflite --enable-libfontconfig --enable-libfreetype --enable-libfribidi --enable-libgme --enable-libgsm --enable-libmodplug --enable-libmp3lame --enable-libopenjpeg --enable-libopus --enable-libpulse --enable-librtmp --enable-libschroedinger --enable-libshine --enable-libsnappy --enable-libsoxr --enable-libspeex --enable-libssh --enable-libtheora --enable-libtwolame --enable-libvorbis --enable-libvpx --enable-libwavpack --enable-libwebp --enable-libx265 --enable-libxvid --enable-libzvbi --enable-openal --enable-opengl --enable-x11grab --enable-libdc1394 --enable-libiec61883 --enable-libzmq --enable-frei0r --enable-libx264 --enable-libopencv
  libavutil      54. 31.100 / 54. 31.100
  libavcodec     56. 60.100 / 56. 60.100
  libavformat    56. 40.101 / 56. 40.101
  libavdevice    56.  4.100 / 56.  4.100
  libavfilter     5. 40.101 /  5. 40.101
  libavresample   2.  1.  0 /  2.  1.  0
  libswscale      3.  1.101 /  3.  1.101
  libswresample   1.  2.101 /  1.  2.101
  libpostproc    53.  3.100 / 53.  3.100
Input #0, mov,mp4,m4a,3gp,3g2,mj2, from '/home/horvathandras/vatic/vatic/public/videouploads/DJI_0677_valto_regi_turas_gabona_Vaskut_2018.06.24._napos_kalaszos_T4.avi':
  Metadata:
    major_brand     : qt  
    minor_version   : 537986816
    compatible_brands: qt  
    creation_time   : 2018-06-24 09:11:35
    location        : +46.094163+18.981996+29.300
    location-{    : +46.094163+18.981996+29.300
    comment         : DE=None, Mode=P, DSW=0001
  Duration: 00:00:14.36, start: 0.000000, bitrate: 101227 kb/s
    Stream #0:0(eng): Video: h264 (High) (avc1 / 0x31637661), yuv420p(tv, bt709), 4096x2160 [SAR 1:1 DAR 256:135], 100938 kb/s, 50 fps, 50 tbr, 50k tbn, 100 tbc (default)
    Metadata:
      creation_time   : 2018-06-24 09:11:35
      handler_name    : DJI.AVC
      encoder         : AVC encoder
    Stream #0:1(eng): Data: none (priv / 0x76697270), 271 kb/s
    Metadata:
      creation_time   : 2018-06-24 09:11:35
      handler_name    : DJI.Meta
Please use -b:a or -b:v, -b is ambiguous
[swscaler @ 0x232ffa0] deprecated pixel format used, make sure you did set range correctly
Output #0, image2, to '/tmp/pyvision-ffmpeg-547097813/%d.jpg':
  Metadata:
    major_brand     : qt  
    minor_version   : 537986816
    compatible_brands: qt  
    comment         : DE=None, Mode=P, DSW=0001
    location        : +46.094163+18.981996+29.300
    location-{    : +46.094163+18.981996+29.300
    encoder         : Lavf56.40.101
    Stream #0:0(eng): Video: mjpeg, yuvj420p(pc), 4096x2160 [SAR 1:1 DAR 256:135], q=2-31, 10000 kb/s, 50 fps, 50 tbn, 50 tbc (default)
    Metadata:
      creation_time   : 2018-06-24 09:11:35
      handler_name    : DJI.AVC
      encoder         : Lavc56.60.100 mjpeg
Stream mapping:
  Stream #0:0 -> #0:0 (h264 (native) -> mjpeg (native))
Press [q] to stop, [?] for help
frame=    1 fps=0.0 q=19.3 size=N/A time=00:00:00.02 bitrate=N/A    frame=    5 fps=4.0 q=24.8 size=N/A time=00:00:00.10 bitrate=N/A    frame=    9 fps=5.1 q=24.8 size=N/A time=00:00:00.18 bitrate=N/A    frame=   13 fps=5.7 q=24.8 size=N/A time=00:00:00.26 bitrate=N/A    frame=   17 fps=6.1 q=24.8 size=N/A time=00:00:00.34 bitrate=N/A    frame=   21 fps=6.3 q=24.8 size=N/A time=00:00:00.42 bitrate=N/A    frame=   25 fps=6.5 q=24.8 size=N/A time=00:00:00.50 bitrate=N/A    frame=   29 fps=6.7 q=24.8 size=N/A time=00:00:00.58 bitrate=N/A    frame=   33 fps=6.8 q=24.8 size=N/A time=00:00:00.66 bitrate=N/A    frame=   37 fps=6.9 q=24.8 size=N/A time=00:00:00.74 bitrate=N/A    frame=   41 fps=6.9 q=24.8 size=N/A time=00:00:00.82 bitrate=N/A    frame=   45 fps=7.0 q=24.8 size=N/A time=00:00:00.90 bitrate=N/A    frame=   49 fps=7.0 q=24.8 size=N/A time=00:00:00.98 bitrate=N/A    frame=   53 fps=7.1 q=24.8 size=N/A time=00:00:01.06 bitrate=N/A    frame=   57 fps=7.1 q=24.8 size=N/A time=00:00:01.14 bitrate=N/A    frame=   61 fps=7.2 q=24.8 size=N/A time=00:00:01.22 bitrate=N/A    frame=   65 fps=7.2 q=24.8 size=N/A time=00:00:01.30 bitrate=N/A    frame=   69 fps=7.2 q=24.8 size=N/A time=00:00:01.38 bitrate=N/A    frame=   73 fps=7.3 q=24.8 size=N/A time=00:00:01.46 bitrate=N/A    frame=   77 fps=7.3 q=24.8 size=N/A time=00:00:01.54 bitrate=N/A    frame=   81 fps=7.3 q=24.8 size=N/A time=00:00:01.62 bitrate=N/A    frame=   85 fps=7.4 q=24.8 size=N/A time=00:00:01.70 bitrate=N/A    frame=   89 fps=7.4 q=24.8 size=N/A time=00:00:01.78 bitrate=N/A    frame=   93 fps=7.4 q=24.8 size=N/A time=00:00:01.86 bitrate=N/A    frame=   97 fps=7.4 q=24.8 size=N/A time=00:00:01.94 bitrate=N/A    frame=  101 fps=7.4 q=24.8 size=N/A time=00:00:02.02 bitrate=N/A    frame=  105 fps=7.4 q=24.8 size=N/A time=00:00:02.10 bitrate=N/A    frame=  109 fps=7.5 q=24.8 size=N/A time=00:00:02.18 bitrate=N/A    frame=  113 fps=7.5 q=24.8 size=N/A time=00:00:02.26 bitrate=N/A    frame=  117 fps=7.5 q=24.8 size=N/A time=00:00:02.34 bitrate=N/A    frame=  121 fps=7.5 q=24.8 size=N/A time=00:00:02.42 bitrate=N/A    frame=  125 fps=7.5 q=24.8 size=N/A time=00:00:02.50 bitrate=N/A    frame=  129 fps=7.5 q=24.8 size=N/A time=00:00:02.58 bitrate=N/A    frame=  133 fps=7.5 q=24.8 size=N/A time=00:00:02.66 bitrate=N/A    frame=  137 fps=7.5 q=24.8 size=N/A time=00:00:02.74 bitrate=N/A    frame=  141 fps=7.6 q=24.8 size=N/A time=00:00:02.82 bitrate=N/A    frame=  145 fps=7.6 q=24.8 size=N/A time=00:00:02.90 bitrate=N/A    frame=  149 fps=7.6 q=24.8 size=N/A time=00:00:02.98 bitrate=N/A    frame=  153 fps=7.6 q=24.8 size=N/A time=00:00:03.06 bitrate=N/A    frame=  157 fps=7.6 q=24.8 size=N/A time=00:00:03.14 bitrate=N/A    frame=  161 fps=7.6 q=24.8 size=N/A time=00:00:03.22 bitrate=N/A    frame=  165 fps=7.6 q=24.8 size=N/A time=00:00:03.30 bitrate=N/A    frame=  169 fps=7.6 q=24.8 size=N/A time=00:00:03.38 bitrate=N/A    frame=  173 fps=7.6 q=24.8 size=N/A time=00:00:03.46 bitrate=N/A    frame=  177 fps=7.6 q=24.8 size=N/A time=00:00:03.54 bitrate=N/A    frame=  181 fps=7.6 q=24.8 size=N/A time=00:00:03.62 bitrate=N/A    frame=  185 fps=7.6 q=24.8 size=N/A time=00:00:03.70 bitrate=N/A    frame=  189 fps=7.6 q=24.8 size=N/A time=00:00:03.78 bitrate=N/A    frame=  193 fps=7.6 q=24.8 size=N/A time=00:00:03.86 bitrate=N/A    frame=  197 fps=7.6 q=24.8 size=N/A time=00:00:03.94 bitrate=N/A    frame=  201 fps=7.6 q=24.8 size=N/A time=00:00:04.02 bitrate=N/A    frame=  205 fps=7.6 q=24.8 size=N/A time=00:00:04.10 bitrate=N/A    frame=  209 fps=7.6 q=24.8 size=N/A time=00:00:04.18 bitrate=N/A    frame=  213 fps=7.6 q=24.8 size=N/A time=00:00:04.26 bitrate=N/A    frame=  217 fps=7.6 q=24.8 size=N/A time=00:00:04.34 bitrate=N/A    frame=  221 fps=7.6 q=24.8 size=N/A time=00:00:04.42 bitrate=N/A    frame=  225 fps=7.6 q=24.8 size=N/A time=00:00:04.50 bitrate=N/A    frame=  229 fps=7.6 q=24.8 size=N/A time=00:00:04.58 bitrate=N/A    frame=  233 fps=7.6 q=24.8 size=N/A time=00:00:04.66 bitrate=N/A    frame=  237 fps=7.6 q=24.8 size=N/A time=00:00:04.74 bitrate=N/A    frame=  241 fps=7.7 q=24.8 size=N/A time=00:00:04.82 bitrate=N/A    frame=  245 fps=7.7 q=24.8 size=N/A time=00:00:04.90 bitrate=N/A    frame=  249 fps=7.7 q=24.8 size=N/A time=00:00:04.98 bitrate=N/A    frame=  253 fps=7.7 q=24.8 size=N/A time=00:00:05.06 bitrate=N/A    frame=  257 fps=7.7 q=24.8 size=N/A time=00:00:05.14 bitrate=N/A    frame=  261 fps=7.7 q=24.8 size=N/A time=00:00:05.22 bitrate=N/A    frame=  265 fps=7.7 q=24.8 size=N/A time=00:00:05.30 bitrate=N/A    frame=  269 fps=7.7 q=24.8 size=N/A time=00:00:05.38 bitrate=N/A    frame=  273 fps=7.7 q=24.8 size=N/A time=00:00:05.46 bitrate=N/A    frame=  277 fps=7.7 q=24.8 size=N/A time=00:00:05.54 bitrate=N/A    frame=  281 fps=7.7 q=24.8 size=N/A time=00:00:05.62 bitrate=N/A    frame=  285 fps=7.7 q=24.8 size=N/A time=00:00:05.70 bitrate=N/A    frame=  289 fps=7.7 q=24.8 size=N/A time=00:00:05.78 bitrate=N/A    frame=  293 fps=7.7 q=24.8 size=N/A time=00:00:05.86 bitrate=N/A    frame=  297 fps=7.7 q=24.8 size=N/A time=00:00:05.94 bitrate=N/A    frame=  301 fps=7.7 q=24.8 size=N/A time=00:00:06.02 bitrate=N/A    frame=  305 fps=7.7 q=24.8 size=N/A time=00:00:06.10 bitrate=N/A    frame=  309 fps=7.7 q=24.8 size=N/A time=00:00:06.18 bitrate=N/A    frame=  313 fps=7.7 q=24.8 size=N/A time=00:00:06.26 bitrate=N/A    frame=  317 fps=7.7 q=24.8 size=N/A time=00:00:06.34 bitrate=N/A    frame=  321 fps=7.7 q=24.8 size=N/A time=00:00:06.42 bitrate=N/A    frame=  325 fps=7.7 q=24.8 size=N/A time=00:00:06.50 bitrate=N/A    frame=  329 fps=7.7 q=24.8 size=N/A time=00:00:06.58 bitrate=N/A    frame=  333 fps=7.7 q=24.8 size=N/A time=00:00:06.66 bitrate=N/A    frame=  337 fps=7.7 q=24.8 size=N/A time=00:00:06.74 bitrate=N/A    frame=  341 fps=7.7 q=24.8 size=N/A time=00:00:06.82 bitrate=N/A    frame=  345 fps=7.7 q=24.8 size=N/A time=00:00:06.90 bitrate=N/A    frame=  349 fps=7.7 q=24.8 size=N/A time=00:00:06.98 bitrate=N/A    frame=  353 fps=7.7 q=24.8 size=N/A time=00:00:07.06 bitrate=N/A    frame=  357 fps=7.7 q=24.8 size=N/A time=00:00:07.14 bitrate=N/A    frame=  361 fps=7.7 q=24.8 size=N/A time=00:00:07.22 bitrate=N/A    frame=  365 fps=7.7 q=24.8 size=N/A time=00:00:07.30 bitrate=N/A    frame=  369 fps=7.7 q=24.8 size=N/A time=00:00:07.38 bitrate=N/A    frame=  373 fps=7.7 q=24.8 size=N/A time=00:00:07.46 bitrate=N/A    frame=  377 fps=7.7 q=24.8 size=N/A time=00:00:07.54 bitrate=N/A    frame=  381 fps=7.7 q=24.8 size=N/A time=00:00:07.62 bitrate=N/A    frame=  385 fps=7.7 q=24.8 size=N/A time=00:00:07.70 bitrate=N/A    frame=  389 fps=7.7 q=24.8 size=N/A time=00:00:07.78 bitrate=N/A    frame=  393 fps=7.7 q=24.8 size=N/A time=00:00:07.86 bitrate=N/A    frame=  397 fps=7.7 q=24.8 size=N/A time=00:00:07.94 bitrate=N/A    frame=  401 fps=7.7 q=24.8 size=N/A time=00:00:08.02 bitrate=N/A    frame=  405 fps=7.7 q=24.8 size=N/A time=00:00:08.10 bitrate=N/A    frame=  409 fps=7.7 q=24.8 size=N/A time=00:00:08.18 bitrate=N/A    frame=  413 fps=7.7 q=24.8 size=N/A time=00:00:08.26 bitrate=N/A    frame=  417 fps=7.7 q=24.8 size=N/A time=00:00:08.34 bitrate=N/A    frame=  421 fps=7.7 q=24.8 size=N/A time=00:00:08.42 bitrate=N/A    frame=  425 fps=7.7 q=24.8 size=N/A time=00:00:08.50 bitrate=N/A    frame=  429 fps=7.7 q=24.8 size=N/A time=00:00:08.58 bitrate=N/A    frame=  433 fps=7.7 q=24.8 size=N/A time=00:00:08.66 bitrate=N/A    frame=  437 fps=7.7 q=24.8 size=N/A time=00:00:08.74 bitrate=N/A    frame=  441 fps=7.7 q=24.8 size=N/A time=00:00:08.82 bitrate=N/A    frame=  445 fps=7.7 q=24.8 size=N/A time=00:00:08.90 bitrate=N/A    frame=  449 fps=7.7 q=24.8 size=N/A time=00:00:08.98 bitrate=N/A    frame=  453 fps=7.7 q=24.8 size=N/A time=00:00:09.06 bitrate=N/A    frame=  457 fps=7.7 q=24.8 size=N/A time=00:00:09.14 bitrate=N/A    frame=  461 fps=7.7 q=24.8 size=N/A time=00:00:09.22 bitrate=N/A    frame=  465 fps=7.7 q=24.8 size=N/A time=00:00:09.30 bitrate=N/A    frame=  469 fps=7.7 q=24.8 size=N/A time=00:00:09.38 bitrate=N/A    frame=  473 fps=7.7 q=24.8 size=N/A time=00:00:09.46 bitrate=N/A    frame=  477 fps=7.7 q=24.8 size=N/A time=00:00:09.54 bitrate=N/A    frame=  481 fps=7.7 q=24.8 size=N/A time=00:00:09.62 bitrate=N/A    frame=  485 fps=7.7 q=24.8 size=N/A time=00:00:09.70 bitrate=N/A    frame=  489 fps=7.7 q=24.8 size=N/A time=00:00:09.78 bitrate=N/A    frame=  493 fps=7.7 q=24.8 size=N/A time=00:00:09.86 bitrate=N/A    frame=  497 fps=7.7 q=24.8 size=N/A time=00:00:09.94 bitrate=N/A    frame=  501 fps=7.7 q=24.8 size=N/A time=00:00:10.02 bitrate=N/A    frame=  505 fps=7.7 q=24.8 size=N/A time=00:00:10.10 bitrate=N/A    frame=  509 fps=7.7 q=24.8 size=N/A time=00:00:10.18 bitrate=N/A    frame=  513 fps=7.7 q=24.8 size=N/A time=00:00:10.26 bitrate=N/A    frame=  517 fps=7.7 q=24.8 size=N/A time=00:00:10.34 bitrate=N/A    frame=  521 fps=7.7 q=24.8 size=N/A time=00:00:10.42 bitrate=N/A    frame=  525 fps=7.7 q=24.8 size=N/A time=00:00:10.50 bitrate=N/A    frame=  529 fps=7.7 q=24.8 size=N/A time=00:00:10.58 bitrate=N/A    frame=  533 fps=7.7 q=24.8 size=N/A time=00:00:10.66 bitrate=N/A    frame=  537 fps=7.7 q=24.8 size=N/A time=00:00:10.74 bitrate=N/A    frame=  541 fps=7.7 q=24.8 size=N/A time=00:00:10.82 bitrate=N/A    frame=  545 fps=7.7 q=24.8 size=N/A time=00:00:10.90 bitrate=N/A    frame=  549 fps=7.7 q=24.8 size=N/A time=00:00:10.98 bitrate=N/A    frame=  553 fps=7.7 q=24.8 size=N/A time=00:00:11.06 bitrate=N/A    frame=  557 fps=7.7 q=24.8 size=N/A time=00:00:11.14 bitrate=N/A    frame=  561 fps=7.7 q=24.8 size=N/A time=00:00:11.22 bitrate=N/A    frame=  565 fps=7.7 q=24.8 size=N/A time=00:00:11.30 bitrate=N/A    frame=  569 fps=7.7 q=24.8 size=N/A time=00:00:11.38 bitrate=N/A    frame=  573 fps=7.7 q=24.8 size=N/A time=00:00:11.46 bitrate=N/A    frame=  577 fps=7.7 q=24.8 size=N/A time=00:00:11.54 bitrate=N/A    frame=  581 fps=7.7 q=24.8 size=N/A time=00:00:11.62 bitrate=N/A    frame=  585 fps=7.7 q=24.8 size=N/A time=00:00:11.70 bitrate=N/A    frame=  589 fps=7.7 q=24.8 size=N/A time=00:00:11.78 bitrate=N/A    frame=  593 fps=7.7 q=24.8 size=N/A time=00:00:11.86 bitrate=N/A    frame=  597 fps=7.7 q=24.8 size=N/A time=00:00:11.94 bitrate=N/A    frame=  601 fps=7.7 q=24.8 size=N/A time=00:00:12.02 bitrate=N/A    frame=  605 fps=7.7 q=24.8 size=N/A time=00:00:12.10 bitrate=N/A    frame=  609 fps=7.7 q=24.8 size=N/A time=00:00:12.18 bitrate=N/A    frame=  613 fps=7.7 q=24.8 size=N/A time=00:00:12.26 bitrate=N/A    frame=  617 fps=7.7 q=24.8 size=N/A time=00:00:12.34 bitrate=N/A    frame=  621 fps=7.7 q=24.8 size=N/A time=00:00:12.42 bitrate=N/A    frame=  625 fps=7.7 q=24.8 size=N/A time=00:00:12.50 bitrate=N/A    frame=  629 fps=7.7 q=24.8 size=N/A time=00:00:12.58 bitrate=N/A    frame=  633 fps=7.7 q=24.8 size=N/A time=00:00:12.66 bitrate=N/A    frame=  637 fps=7.7 q=24.8 size=N/A time=00:00:12.74 bitrate=N/A    frame=  641 fps=7.7 q=24.8 size=N/A time=00:00:12.82 bitrate=N/A    frame=  645 fps=7.7 q=24.8 size=N/A time=00:00:12.90 bitrate=N/A    frame=  649 fps=7.7 q=24.8 size=N/A time=00:00:12.98 bitrate=N/A    frame=  653 fps=7.7 q=24.8 size=N/A time=00:00:13.06 bitrate=N/A    frame=  657 fps=7.7 q=24.8 size=N/A time=00:00:13.14 bitrate=N/A    frame=  661 fps=7.7 q=24.8 size=N/A time=00:00:13.22 bitrate=N/A    frame=  665 fps=7.7 q=24.8 size=N/A time=00:00:13.30 bitrate=N/A    frame=  669 fps=7.7 q=24.8 size=N/A time=00:00:13.38 bitrate=N/A    frame=  673 fps=7.7 q=24.8 size=N/A time=00:00:13.46 bitrate=N/A    frame=  677 fps=7.7 q=24.8 size=N/A time=00:00:13.54 bitrate=N/A    frame=  681 fps=7.7 q=24.8 size=N/A time=00:00:13.62 bitrate=N/A    frame=  685 fps=7.7 q=24.8 size=N/A time=00:00:13.70 bitrate=N/A    frame=  689 fps=7.7 q=24.8 size=N/A time=00:00:13.78 bitrate=N/A    frame=  693 fps=7.7 q=24.8 size=N/A time=00:00:13.86 bitrate=N/A    frame=  697 fps=7.7 q=24.8 size=N/A time=00:00:13.94 bitrate=N/A    frame=  701 fps=7.7 q=24.8 size=N/A time=00:00:14.02 bitrate=N/A    frame=  705 fps=7.7 q=24.8 size=N/A time=00:00:14.10 bitrate=N/A    frame=  709 fps=7.7 q=24.8 size=N/A time=00:00:14.18 bitrate=N/A    frame=  713 fps=7.7 q=24.8 size=N/A time=00:00:14.26 bitrate=N/A    frame=  717 fps=7.7 q=24.8 size=N/A time=00:00:14.34 bitrate=N/A    frame=  718 fps=7.7 q=24.8 Lsize=N/A time=00:00:14.36 bitrate=N/A    
video:726286kB audio:0kB subtitle:0kB other streams:0kB global headers:0kB muxing overhead: unknown
+ turkic load DJI_0677_valto_regi_turas_gabona_Vaskut_2018.06.24._napos_kalaszos_T4 /home/horvathandras/vatic/vatic/videos/DJI_0677_valto_regi_turas_gabona_Vaskut_2018.06.24._napos_kalaszos_T4 $'Pozit\303\255vROI' $'Negat\303\255vROI' $'T\303\272r\303\241s' '~Friss' '~1-2Hetes' '~Régebbi' '~Egyéb1' '~Egyéb2' '~Egyéb3' $'R\303\241g\303\241s' '~Friss' '~1-2Hetes' '~Régebbi' '~Egyéb1' '~Egyéb2' '~Egyéb3' $'T\303\266r\303\251s' '~Friss' '~1-2Hetes' '~Régebbi' '~Egyéb1' '~Egyéb2' '~Egyéb3' $'Tapos\303\241s' '~Friss' '~1-2Hetes' '~Régebbi' '~Egyéb1' '~Egyéb2' '~Egyéb3' $'Eg\303\251szs\303\251gesN\303\266v\303\251ny' $'Egy\303\251b1' $'Egy\303\251b2' $'Egy\303\251b3' $'Egy\303\251b4' $'Egy\303\251b5' Bizonytalan $'M\305\261vel\305\221\303\272t' $'Gktapos\303\241s' $'Vet\305\221hiba' $'Sz\303\251ld\303\266nt\303\251s' $'J\303\251gk\303\241r' $'Belv\303\255z' $'Asz\303\241ly' $'Er\303\263zi\303\263' $'Egyszik\305\261Gyom' $'K\303\251tszik\305\261Gyom' $'Egy\303\251bN\303\266vv\303\251delmiPR' --offline --title '$filenameNoDot Video' --length 1000 --description 'vatic annotation'
+ turkic publish --offline
+ mkdir /home/horvathandras/vatic/vatic/public/videothumbnails/DJI_0677_valto_regi_turas_gabona_Vaskut_2018.06.24._napos_kalaszos_T4
+ cp /home/horvathandras/vatic/vatic/videos/DJI_0677_valto_regi_turas_gabona_Vaskut_2018.06.24._napos_kalaszos_T4/0/0/31.jpg /home/horvathandras/vatic/vatic/public/videothumbnails/DJI_0677_valto_regi_turas_gabona_Vaskut_2018.06.24._napos_kalaszos_T4/thumb.jpg
